<svg width="32" height="33" viewBox="0 0 32 33" fill="none" xmlns="http://www.w3.org/2000/svg">
<path d="M16.7075 0.0410156C21.6729 0.0410156 25.3065 1.36487 28.0656 4.15441C31.1125 7.27491 32.4931 11.7193 31.8419 16.3527C31.204 20.8917 28.6763 25.2887 24.9022 28.362C20.9716 31.5298 17.1291 32.7118 10.9223 32.7118H6.33874C2.80561 32.7118 1.40525 32.1444 0.423025 30.3005C-0.0992196 29.2603 -0.136138 28.5038 0.302421 25.3833L2.82745 7.41676C3.33246 3.82345 3.55543 3.25608 4.73749 1.97951C6.01504 0.702941 7.7314 0.0410156 10.0709 0.0410156H16.7075ZM13.2868 10.1117L11.5193 22.6883C15.2978 22.641 16.2249 22.4992 17.5992 21.5536C19.382 20.4189 20.7114 18.4331 21.0038 16.3527C21.3294 14.036 20.2638 11.7666 18.2548 10.7737C17.3186 10.3009 16.1038 10.1117 14.194 10.1117H13.2868Z" fill="url(#paint0_angular_2069_1587)"/>
<defs>
<radialGradient id="paint0_angular_2069_1587" cx="0" cy="0" r="1" gradientUnits="userSpaceOnUse" gradientTransform="translate(34.182 18.709) rotate(-104.178) scale(23.3914 49.9207)">
<stop stop-color="#00C8FF"/>
<stop offset="1" stop-color="#9F21FF"/>
</radialGradient>
</defs>
</svg>
