<svg width="32" height="33" viewBox="0 0 32 33" fill="none" xmlns="http://www.w3.org/2000/svg">
<path d="M16.7075 0C21.6729 0 25.3065 1.32385 28.0656 4.11339C31.1125 7.2339 32.4931 11.6783 31.8419 16.3117C31.204 20.8507 28.6763 25.2477 24.9022 28.321C20.9716 31.4887 17.1291 32.6708 10.9223 32.6708H6.33874C2.80561 32.6708 1.40525 32.1034 0.423025 30.2595C-0.0992196 29.2193 -0.136138 28.4628 0.302421 25.3423L2.82745 7.37574C3.33246 3.78243 3.55543 3.21507 4.73749 1.9385C6.01504 0.661925 7.7314 0 10.0709 0H16.7075ZM13.2868 10.0707L11.5193 22.6473C15.2978 22.6 16.2249 22.4582 17.5992 21.5126C19.382 20.3778 20.7114 18.3921 21.0038 16.3117C21.3294 13.995 20.2638 11.7255 18.2548 10.7326C17.3186 10.2598 16.1038 10.0707 14.194 10.0707H13.2868Z" fill="white"/>
</svg>
