<svg width="1200" height="675" viewBox="0 0 1200 675" fill="none" xmlns="http://www.w3.org/2000/svg">
<path d="M501.694 161C555.693 161 595.208 175.385 625.214 205.696C658.348 239.603 673.363 287.896 666.281 338.243C659.344 387.563 631.854 435.342 590.811 468.735C548.066 503.156 506.279 516 438.78 516H388.934C350.511 516 335.282 509.835 324.6 489.799C318.921 478.496 318.52 470.276 323.289 436.369L350.749 241.145C356.241 202.1 358.665 195.935 371.52 182.064C385.414 168.192 404.079 161 429.521 161H501.694ZM464.494 270.428L445.272 407.085C486.364 406.572 496.446 405.03 511.391 394.755C530.779 382.425 545.237 360.848 548.416 338.243C551.957 313.069 540.368 288.41 518.521 277.621C508.339 272.483 495.129 270.428 474.36 270.428H464.494Z" fill="url(#paint0_angular_2054_1588)"/>
<path d="M716.26 399.185C722.797 399.185 727.318 404.384 726.408 410.853C725.515 417.206 719.531 422.405 712.995 422.405H698.639C698.522 422.405 698.522 422.405 698.522 422.405C680.781 422.405 668.423 408.196 670.892 390.637C673.377 372.963 689.732 358.754 707.473 358.754C716.11 358.754 723.709 361.988 728.917 368.111C732.952 372.616 731.913 380.009 726.61 384.514L710.123 398.839C709.99 398.954 709.857 399.07 709.724 399.185H716.26ZM707.978 382.551C705.382 379.432 700.247 379.432 696.657 382.551C693.067 385.67 692.352 390.752 695.065 393.871L707.978 382.551Z" fill="url(#paint1_angular_2054_1588)"/>
<path d="M791.771 363.143C793.93 365.223 794.691 368.111 794.252 371.23C793.96 373.309 793.217 375.273 792.007 377.237L791.212 378.738L769.437 414.896C765.295 421.942 759.78 422.982 756.745 422.982C753.944 422.982 751.707 422.289 750.035 420.903C748.579 419.632 747.338 417.668 746.428 415.011L734.455 378.969L733.966 377.468C733.341 375.273 733.166 373.194 733.442 371.23C733.881 368.111 735.454 365.223 738.198 363.143C740.724 360.949 743.672 359.909 746.823 359.909C749.858 359.909 752.195 360.718 753.952 362.335C755.274 363.721 756.483 365.916 757.562 369.035L762.07 384.283L770.851 369.15C772.707 365.916 774.549 363.606 776.378 362.219C778.456 360.718 781.021 359.909 783.939 359.909C787.207 359.909 789.862 360.949 791.771 363.143Z" fill="url(#paint2_angular_2054_1588)"/>
<path d="M819.04 363.837C820.816 366.147 821.444 369.15 820.956 372.616L815.758 409.582C815.206 413.51 813.834 416.629 811.508 419.055C808.933 421.596 805.587 422.982 801.969 422.982C798.351 422.982 795.495 421.711 793.618 419.286C791.858 416.86 791.23 413.856 791.734 410.275L797.029 372.616C797.533 369.035 799.139 365.916 801.548 363.721C804.107 361.295 807.203 360.024 810.822 360.024C814.323 360.024 817.179 361.295 819.04 363.837ZM810.916 358.523C805.43 358.523 801.729 354.133 802.493 348.704C803.24 343.39 808.176 339 813.661 339C819.147 339 822.965 343.39 822.218 348.704C821.454 354.133 816.402 358.523 810.916 358.523Z" fill="url(#paint3_angular_2054_1588)"/>
<path d="M880.903 381.164C881.097 383.937 881.009 387.056 880.554 390.29L877.727 410.391C877.107 413.972 875.518 416.975 873.092 419.286C870.65 421.711 867.436 422.982 864.052 422.982C860.55 422.982 857.577 421.711 855.701 419.286C853.941 416.86 853.313 413.856 853.817 410.275L856.887 388.442C857.26 385.785 855.922 384.514 855.17 384.052C854.434 383.475 853.766 383.244 852.832 383.244C851.432 383.244 850.433 383.706 849.486 384.63C848.289 385.67 847.777 386.825 847.549 388.442L844.463 410.391C843.843 413.972 842.253 416.975 839.827 419.286C837.385 421.711 834.172 422.982 830.67 422.982C827.169 422.982 824.313 421.711 822.436 419.286C820.677 416.86 820.048 413.856 820.552 410.275L823.427 389.828C823.996 385.785 824.966 382.204 826.338 379.085C827.711 375.966 829.767 372.963 832.375 370.19C835.53 366.84 839.172 364.183 843.4 362.335C847.512 360.486 851.844 359.562 856.045 359.562C861.064 359.562 865.671 360.833 869.749 363.374C873.843 365.8 876.857 369.266 878.941 373.54C879.932 375.619 880.625 378.161 880.903 381.164Z" fill="url(#paint4_angular_2054_1588)"/>
<path d="M732.344 458.756C733.559 462.568 733.775 466.843 733.157 471.232C732.54 475.622 731.138 479.781 728.851 483.593C726.681 487.405 723.876 490.755 720.435 493.643C717.111 496.531 713.401 498.841 709.322 500.459C705.11 502.191 700.795 503 696.359 503C691.924 503 687.836 502.191 684.095 500.574C680.354 498.957 677.294 496.646 674.782 493.759C672.254 490.986 670.391 487.636 669.16 483.939C667.945 480.127 667.713 475.969 668.33 471.579C668.964 467.074 670.382 462.799 672.568 458.872C674.871 454.944 677.693 451.479 681.017 448.591C684.224 445.703 688.051 443.392 692.246 441.775C696.459 440.042 700.891 439.234 705.443 439.234C709.878 439.234 713.966 440.042 717.691 441.775C721.315 443.392 724.375 445.703 726.887 448.591C729.399 451.479 731.246 454.944 732.344 458.756ZM692.818 474.236C693.138 475.276 693.608 476.084 694.211 476.777C694.814 477.47 695.666 478.048 696.652 478.51C697.537 478.857 698.555 479.088 699.722 479.088C700.772 479.088 701.855 478.857 702.838 478.51C703.953 478.048 704.984 477.355 705.899 476.662C706.697 475.969 707.394 475.16 708.007 474.12C708.487 473.196 708.867 472.156 709.013 471.117C709.192 469.846 709.104 468.806 708.884 467.882C708.564 466.843 708.094 466.034 707.491 465.341C706.904 464.532 706.052 463.955 705.05 463.608C704.181 463.146 703.163 462.915 702.113 462.915C700.946 462.915 699.746 463.146 698.747 463.608C697.632 464.07 696.617 464.648 695.702 465.341C694.905 466.034 694.191 466.958 693.695 467.998C693.098 468.922 692.702 470.077 692.523 471.348C692.377 472.388 692.481 473.312 692.818 474.236Z" fill="url(#paint5_angular_2054_1588)"/>
<path d="M819.79 442.237C821.933 444.432 822.811 447.32 822.356 450.554C822.112 452.287 821.518 454.02 820.591 455.637L801.74 493.412C800.15 496.415 798.574 498.495 796.612 499.997C794.417 501.498 791.852 502.307 788.934 502.307C785.899 502.307 783.562 501.498 781.905 499.997C780.35 498.61 779.241 496.531 778.38 493.527L775.319 482.091L769.292 493.412C767.57 496.531 765.877 498.61 764.164 499.997C762.086 501.498 759.521 502.307 756.486 502.307C751.234 502.307 747.655 499.534 746.47 494.683L746.386 494.452L746.214 493.181L737.659 456.908L737.42 455.291C736.947 453.673 736.957 451.941 737.201 450.208C737.639 447.089 739.213 444.201 741.956 442.122C744.482 439.927 747.43 438.887 750.581 438.887C755.95 438.887 759.697 442.122 760.769 447.782L761.024 449.284L762.827 458.872L768.307 448.129C769.763 445.241 771.456 443.161 773.418 441.66C775.646 439.927 778.344 439.003 781.378 439.003C784.53 439.003 789.97 440.158 791.747 447.435L794.289 458.41L798.192 449.746L798.887 448.129L798.903 448.013L799.036 447.898C802.825 440.042 808.706 438.887 811.975 438.887C815.126 438.887 817.765 440.042 819.79 442.237Z" fill="url(#paint6_angular_2054_1588)"/>
<path d="M879.481 460.489C879.675 463.262 879.586 466.381 879.131 469.615L876.305 489.715C875.685 493.296 874.095 496.3 871.669 498.61C869.227 501.036 866.014 502.307 862.629 502.307C859.128 502.307 856.155 501.036 854.278 498.61C852.519 496.184 851.89 493.181 852.394 489.6L855.464 467.767C855.838 465.11 854.499 463.839 853.747 463.377C853.011 462.799 852.343 462.568 851.41 462.568C850.009 462.568 849.01 463.031 848.063 463.955C846.867 464.994 846.354 466.15 846.127 467.767L843.04 489.715C842.42 493.296 840.831 496.3 838.405 498.61C835.963 501.036 832.749 502.307 829.248 502.307C825.746 502.307 822.89 501.036 821.014 498.61C819.254 496.184 818.626 493.181 819.129 489.6L822.005 469.153C822.573 465.11 823.544 461.529 824.916 458.41C826.288 455.291 828.345 452.287 830.952 449.515C834.108 446.165 837.749 443.508 841.978 441.66C846.089 439.811 850.421 438.887 854.623 438.887C859.642 438.887 864.249 440.158 868.327 442.699C872.421 445.125 875.435 448.591 877.518 452.865C878.51 454.944 879.203 457.486 879.481 460.489Z" fill="url(#paint7_angular_2054_1588)"/>
<defs>
<radialGradient id="paint0_angular_2054_1588" cx="0" cy="0" r="1" gradientUnits="userSpaceOnUse" gradientTransform="translate(691.729 363.847) rotate(-104.189) scale(254.183 542.861)">
<stop stop-color="#00C8FF"/>
<stop offset="1" stop-color="#9F21FF"/>
</radialGradient>
<radialGradient id="paint1_angular_2054_1588" cx="0" cy="0" r="1" gradientUnits="userSpaceOnUse" gradientTransform="translate(676.63 434.865) rotate(-104.185) scale(114.307 244.065)">
<stop stop-color="#00A8D7"/>
<stop offset="1" stop-color="#8B00F5"/>
</radialGradient>
<radialGradient id="paint2_angular_2054_1588" cx="0" cy="0" r="1" gradientUnits="userSpaceOnUse" gradientTransform="translate(676.63 434.865) rotate(-104.185) scale(114.307 244.065)">
<stop stop-color="#00A8D7"/>
<stop offset="1" stop-color="#8B00F5"/>
</radialGradient>
<radialGradient id="paint3_angular_2054_1588" cx="0" cy="0" r="1" gradientUnits="userSpaceOnUse" gradientTransform="translate(676.63 434.865) rotate(-104.185) scale(114.307 244.065)">
<stop stop-color="#00A8D7"/>
<stop offset="1" stop-color="#8B00F5"/>
</radialGradient>
<radialGradient id="paint4_angular_2054_1588" cx="0" cy="0" r="1" gradientUnits="userSpaceOnUse" gradientTransform="translate(676.63 434.865) rotate(-104.185) scale(114.307 244.065)">
<stop stop-color="#00A8D7"/>
<stop offset="1" stop-color="#8B00F5"/>
</radialGradient>
<radialGradient id="paint5_angular_2054_1588" cx="0" cy="0" r="1" gradientUnits="userSpaceOnUse" gradientTransform="translate(676.63 434.865) rotate(-104.185) scale(114.307 244.065)">
<stop stop-color="#00A8D7"/>
<stop offset="1" stop-color="#8B00F5"/>
</radialGradient>
<radialGradient id="paint6_angular_2054_1588" cx="0" cy="0" r="1" gradientUnits="userSpaceOnUse" gradientTransform="translate(676.63 434.865) rotate(-104.185) scale(114.307 244.065)">
<stop stop-color="#00A8D7"/>
<stop offset="1" stop-color="#8B00F5"/>
</radialGradient>
<radialGradient id="paint7_angular_2054_1588" cx="0" cy="0" r="1" gradientUnits="userSpaceOnUse" gradientTransform="translate(676.63 434.865) rotate(-104.185) scale(114.307 244.065)">
<stop stop-color="#00A8D7"/>
<stop offset="1" stop-color="#8B00F5"/>
</radialGradient>
</defs>
</svg>
