<svg width="92" height="41" viewBox="0 0 92 41" fill="none" xmlns="http://www.w3.org/2000/svg">
<path d="M20.7846 2.04119C26.6922 2.04119 31.0152 3.61622 34.2978 6.93503C37.9227 10.6476 39.5654 15.9352 38.7906 21.4478C38.0317 26.8479 35.0243 32.0792 30.5342 35.7355C25.8578 39.5044 21.2863 40.9106 13.9018 40.9106H8.44863C4.24515 40.9106 2.5791 40.2356 1.41051 38.0418C0.789182 36.8043 0.745259 35.9043 1.26703 32.1917L4.27114 10.8164C4.87196 6.54128 5.13724 5.86626 6.54357 4.34748C8.06351 2.82871 10.1055 2.04119 12.8889 2.04119H20.7846ZM16.715 14.0227L14.6121 28.9854C19.1075 28.9292 20.2105 28.7604 21.8455 27.6354C23.9666 26.2854 25.5483 23.9228 25.8961 21.4478C26.2835 18.6915 25.0157 15.9914 22.6255 14.8102C21.5117 14.2477 20.0664 14.0227 17.7943 14.0227H16.715Z" fill="url(#paint0_angular_2064_1594)"/>
<path d="M51.2181 15.564C52.8086 15.564 53.9088 16.8297 53.6874 18.4047C53.47 19.9516 52.0141 21.2173 50.4236 21.2173H46.9301C46.9017 21.2173 46.9017 21.2173 46.9017 21.2173C42.5846 21.2173 39.5774 17.7578 40.1782 13.4827C40.783 9.17954 44.7626 5.72011 49.0797 5.72011C51.1815 5.72011 53.0305 6.50762 54.2979 7.99827C55.2798 9.09517 55.0269 10.8952 53.7366 11.9921L49.7246 15.4797C49.6923 15.5078 49.6599 15.5359 49.6276 15.564H51.2181ZM49.2027 11.514C48.571 10.7546 47.3213 10.7546 46.4477 11.514C45.5741 12.2733 45.4002 13.5109 46.0603 14.2703L49.2027 11.514Z" fill="url(#paint1_angular_2064_1594)"/>
<path d="M69.5928 6.78888C70.1181 7.29514 70.3033 7.99827 70.1966 8.75766C70.1254 9.26392 69.9446 9.74205 69.6502 10.2202L69.4568 10.5858L64.1581 19.3891C63.1501 21.1048 61.8081 21.3579 61.0696 21.3579C60.388 21.3579 59.8436 21.1891 59.4366 20.8516C59.0825 20.5422 58.7805 20.0641 58.559 19.4172L55.6456 10.6421L55.5265 10.2764C55.3744 9.74205 55.332 9.23579 55.3992 8.75766C55.5059 7.99827 55.8887 7.29514 56.5563 6.78888C57.1711 6.25449 57.8883 6.00136 58.6551 6.00136C59.3936 6.00136 59.9623 6.19824 60.3898 6.592C60.7116 6.9295 61.0058 7.46389 61.2683 8.22328L62.3654 11.9358L64.5021 8.2514C64.9536 7.46389 65.4019 6.90138 65.847 6.56387C66.3528 6.19824 66.9769 6.00136 67.6869 6.00136C68.4822 6.00136 69.1283 6.25449 69.5928 6.78888Z" fill="url(#paint2_angular_2064_1594)"/>
<path d="M76.2282 6.95763C76.6604 7.52014 76.8132 8.2514 76.6947 9.09517L75.4298 18.0953C75.2954 19.0516 74.9614 19.811 74.3956 20.4016C73.769 21.0204 72.9547 21.3579 72.0742 21.3579C71.1938 21.3579 70.4988 21.0485 70.0422 20.4579C69.614 19.8672 69.4611 19.136 69.5837 18.2641L70.8723 9.09517C70.9948 8.22328 71.3855 7.46389 71.9719 6.9295C72.5945 6.33887 73.3481 6.02949 74.2285 6.02949C75.0806 6.02949 75.7755 6.33887 76.2282 6.95763ZM74.2515 5.66386C72.9166 5.66386 72.0159 4.59509 72.2017 3.27319C72.3835 1.97942 73.5846 0.910645 74.9195 0.910645C76.2544 0.910645 77.1835 1.97942 77.0016 3.27319C76.8159 4.59509 75.5864 5.66386 74.2515 5.66386Z" fill="url(#paint3_angular_2064_1594)"/>
<path d="M91.2821 11.1765C91.3292 11.8515 91.3077 12.6109 91.197 13.3984L90.5092 18.2922C90.3583 19.1641 89.9715 19.8954 89.3812 20.4579C88.787 21.0485 88.005 21.3579 87.1814 21.3579C86.3293 21.3579 85.606 21.0485 85.1493 20.4579C84.7211 19.8672 84.5683 19.136 84.6908 18.2641L85.4379 12.9484C85.5288 12.3015 85.2031 11.9921 85.02 11.8796C84.841 11.739 84.6785 11.6827 84.4513 11.6827C84.1105 11.6827 83.8674 11.7952 83.637 12.0202C83.3458 12.2733 83.2211 12.5546 83.1657 12.9484L82.4147 18.2922C82.2638 19.1641 81.877 19.8954 81.2867 20.4579C80.6924 21.0485 79.9105 21.3579 79.0584 21.3579C78.2064 21.3579 77.5114 21.0485 77.0548 20.4579C76.6266 19.8672 76.4737 19.136 76.5963 18.2641L77.2959 13.2859C77.4343 12.3015 77.6704 11.4296 78.0043 10.6702C78.3383 9.91081 78.8387 9.17954 79.4732 8.50453C80.241 7.68889 81.1272 7.04201 82.1561 6.592C83.1566 6.14199 84.2107 5.91699 85.2332 5.91699C86.4545 5.91699 87.5755 6.22636 88.5678 6.84513C89.5641 7.43576 90.2975 8.27953 90.8045 9.32017C91.0458 9.82643 91.2144 10.4452 91.2821 11.1765Z" fill="url(#paint4_angular_2064_1594)"/>
<path d="M55.1318 30.0679C55.4274 30.996 55.48 32.0367 55.3298 33.1054C55.1796 34.1742 54.8384 35.1867 54.282 36.1149C53.7539 37.043 53.0712 37.8586 52.234 38.5618C51.4251 39.2649 50.5224 39.8274 49.5298 40.2212C48.5048 40.6431 47.4547 40.8399 46.3754 40.8399C45.2962 40.8399 44.3013 40.6431 43.391 40.2493C42.4807 39.8555 41.7361 39.293 41.1249 38.5899C40.5097 37.9149 40.0563 37.0992 39.7567 36.1992C39.4612 35.2711 39.4046 34.2586 39.5548 33.1898C39.709 32.0929 40.0541 31.0523 40.5861 30.096C41.1465 29.1397 41.8331 28.296 42.642 27.5928C43.4225 26.8897 44.3536 26.3272 45.3746 25.9334C46.3995 25.5115 47.4781 25.3147 48.5858 25.3147C49.665 25.3147 50.6598 25.5115 51.5662 25.9334C52.4481 26.3272 53.1927 26.8897 53.804 27.5928C54.4152 28.296 54.8646 29.1397 55.1318 30.0679ZM45.5135 33.8367C45.5916 34.0898 45.7059 34.2867 45.8526 34.4554C45.9993 34.6242 46.2068 34.7648 46.4466 34.8773C46.6619 34.9617 46.9096 35.018 47.1936 35.018C47.4493 35.018 47.7128 34.9617 47.9519 34.8773C48.2233 34.7648 48.4742 34.5961 48.6968 34.4273C48.8909 34.2586 49.0606 34.0617 49.2097 33.8086C49.3266 33.5836 49.4189 33.3304 49.4545 33.0773C49.498 32.7679 49.4768 32.5148 49.4232 32.2898C49.3452 32.0367 49.2308 31.8398 49.0841 31.671C48.9414 31.4741 48.7339 31.3335 48.4902 31.2491C48.2788 31.1366 48.0311 31.0804 47.7754 31.0804C47.4914 31.0804 47.1995 31.1366 46.9565 31.2491C46.685 31.3616 46.4381 31.5023 46.2155 31.671C46.0214 31.8398 45.8478 32.0648 45.727 32.3179C45.5818 32.5429 45.4854 32.8242 45.4419 33.1335C45.4064 33.3867 45.4316 33.6117 45.5135 33.8367Z" fill="url(#paint5_angular_2064_1594)"/>
<path d="M76.4109 26.0459C76.9323 26.5803 77.1459 27.2834 77.0352 28.071C76.9759 28.4928 76.8314 28.9147 76.6057 29.3085L72.0185 38.5055C71.6317 39.2368 71.2481 39.743 70.7707 40.1087C70.2365 40.4743 69.6124 40.6712 68.9023 40.6712C68.1639 40.6712 67.5951 40.4743 67.1921 40.1087C66.8135 39.7712 66.5438 39.2649 66.3341 38.5336L65.5894 35.7492L64.1227 38.5055C63.7036 39.2649 63.2916 39.7712 62.875 40.1087C62.3692 40.4743 61.745 40.6712 61.0066 40.6712C59.7285 40.6712 58.8577 39.9962 58.5693 38.8149L58.5488 38.7586L58.5071 38.4493L56.4252 29.6179L56.367 29.2241C56.2519 28.8303 56.2544 28.4085 56.3137 27.9866C56.4204 27.2272 56.8032 26.5241 57.4708 26.0178C58.0856 25.4834 58.8028 25.2303 59.5696 25.2303C60.8761 25.2303 61.7879 26.0178 62.0487 27.3959L62.1109 27.7616L62.5496 30.096L63.8829 27.4803C64.2374 26.7772 64.6493 26.2709 65.1267 25.9053C65.6689 25.4834 66.3253 25.2584 67.0638 25.2584C67.8306 25.2584 69.1544 25.5397 69.587 27.3116L70.2056 29.9835L71.1553 27.8741L71.3242 27.4803L71.3282 27.4522L71.3605 27.4241C72.2826 25.5115 73.7138 25.2303 74.509 25.2303C75.2759 25.2303 75.918 25.5115 76.4109 26.0459Z" fill="url(#paint6_angular_2064_1594)"/>
<path d="M90.9359 30.4898C90.9831 31.1648 90.9616 31.9242 90.8509 32.7117L90.1631 37.6055C90.0122 38.4774 89.6254 39.2087 89.0351 39.7712C88.4408 40.3618 87.6589 40.6712 86.8352 40.6712C85.9832 40.6712 85.2598 40.3618 84.8032 39.7712C84.375 39.1805 84.2221 38.4493 84.3447 37.5774L85.0917 32.2617C85.1826 31.6148 84.8569 31.3054 84.6739 31.1929C84.4949 31.0523 84.3323 30.996 84.1051 30.996C83.7643 30.996 83.5213 31.1085 83.2908 31.3335C82.9996 31.5866 82.8749 31.8679 82.8196 32.2617L82.0685 37.6055C81.9176 38.4774 81.5308 39.2087 80.9405 39.7712C80.3463 40.3618 79.5644 40.6712 78.7123 40.6712C77.8602 40.6712 77.1653 40.3618 76.7087 39.7712C76.2804 39.1805 76.1276 38.4493 76.2501 37.5774L76.9498 32.5992C77.0881 31.6148 77.3242 30.7429 77.6582 29.9835C77.9921 29.2241 78.4925 28.4928 79.127 27.8178C79.8949 27.0022 80.7811 26.3553 81.81 25.9053C82.8105 25.4553 83.8646 25.2303 84.887 25.2303C86.1083 25.2303 87.2293 25.5397 88.2216 26.1584C89.2179 26.7491 89.9514 27.5928 90.4584 28.6335C90.6996 29.1397 90.8683 29.7585 90.9359 30.4898Z" fill="url(#paint7_angular_2064_1594)"/>
<defs>
<radialGradient id="paint0_angular_2064_1594" cx="0" cy="0" r="1" gradientUnits="userSpaceOnUse" gradientTransform="translate(41.5747 24.251) rotate(-104.178) scale(27.8295 59.3923)">
<stop stop-color="#00A8D7"/>
<stop offset="1" stop-color="#8B00F5"/>
</radialGradient>
<radialGradient id="paint1_angular_2064_1594" cx="0" cy="0" r="1" gradientUnits="userSpaceOnUse" gradientTransform="translate(41.5747 24.251) rotate(-104.178) scale(27.8295 59.3923)">
<stop stop-color="#00A8D7"/>
<stop offset="1" stop-color="#8B00F5"/>
</radialGradient>
<radialGradient id="paint2_angular_2064_1594" cx="0" cy="0" r="1" gradientUnits="userSpaceOnUse" gradientTransform="translate(41.5747 24.251) rotate(-104.178) scale(27.8295 59.3923)">
<stop stop-color="#00A8D7"/>
<stop offset="1" stop-color="#8B00F5"/>
</radialGradient>
<radialGradient id="paint3_angular_2064_1594" cx="0" cy="0" r="1" gradientUnits="userSpaceOnUse" gradientTransform="translate(41.5747 24.251) rotate(-104.178) scale(27.8295 59.3923)">
<stop stop-color="#00A8D7"/>
<stop offset="1" stop-color="#8B00F5"/>
</radialGradient>
<radialGradient id="paint4_angular_2064_1594" cx="0" cy="0" r="1" gradientUnits="userSpaceOnUse" gradientTransform="translate(41.5747 24.251) rotate(-104.178) scale(27.8295 59.3923)">
<stop stop-color="#00A8D7"/>
<stop offset="1" stop-color="#8B00F5"/>
</radialGradient>
<radialGradient id="paint5_angular_2064_1594" cx="0" cy="0" r="1" gradientUnits="userSpaceOnUse" gradientTransform="translate(41.5747 24.251) rotate(-104.178) scale(27.8295 59.3923)">
<stop stop-color="#00A8D7"/>
<stop offset="1" stop-color="#8B00F5"/>
</radialGradient>
<radialGradient id="paint6_angular_2064_1594" cx="0" cy="0" r="1" gradientUnits="userSpaceOnUse" gradientTransform="translate(41.5747 24.251) rotate(-104.178) scale(27.8295 59.3923)">
<stop stop-color="#00A8D7"/>
<stop offset="1" stop-color="#8B00F5"/>
</radialGradient>
<radialGradient id="paint7_angular_2064_1594" cx="0" cy="0" r="1" gradientUnits="userSpaceOnUse" gradientTransform="translate(41.5747 24.251) rotate(-104.178) scale(27.8295 59.3923)">
<stop stop-color="#00A8D7"/>
<stop offset="1" stop-color="#8B00F5"/>
</radialGradient>
</defs>
</svg>
