<svg width="92" height="40" viewBox="0 0 92 40" fill="none" xmlns="http://www.w3.org/2000/svg">
<path d="M20.7846 1.13055C26.6922 1.13055 31.0152 2.70558 34.2978 6.02439C37.9227 9.73695 39.5654 15.0245 38.7906 20.5371C38.0317 25.9372 35.0243 31.1686 30.5342 34.8249C25.8578 38.5937 21.2863 40 13.9018 40H8.44863C4.24515 40 2.5791 39.325 1.41051 37.1312C0.789182 35.8937 0.745259 34.9937 1.26703 31.2811L4.27114 9.90571C4.87196 5.63063 5.13724 4.95562 6.54357 3.43684C8.06351 1.91806 10.1055 1.13055 12.8889 1.13055H20.7846ZM16.715 13.112L14.6121 28.0748C19.1075 28.0185 20.2105 27.8498 21.8455 26.7248C23.9666 25.3747 25.5483 23.0122 25.8961 20.5371C26.2835 17.7808 25.0157 15.0808 22.6255 13.8995C21.5117 13.337 20.0664 13.112 17.7943 13.112H16.715Z" fill="url(#paint0_angular_2064_1596)"/>
<path d="M51.2181 14.6534C52.8086 14.6534 53.9088 15.919 53.6874 17.4941C53.47 19.041 52.0141 20.3066 50.4236 20.3066H46.9301C46.9017 20.3066 46.9017 20.3066 46.9017 20.3066C42.5846 20.3066 39.5774 16.8472 40.1782 12.5721C40.783 8.2689 44.7626 4.80946 49.0797 4.80946C51.1815 4.80946 53.0305 5.59698 54.2979 7.08763C55.2798 8.18452 55.0269 9.98455 53.7366 11.0814L49.7246 14.569C49.6923 14.5971 49.6599 14.6253 49.6276 14.6534H51.2181ZM49.2027 10.6033C48.571 9.84393 47.3213 9.84393 46.4477 10.6033C45.5741 11.3627 45.4002 12.6002 46.0603 13.3596L49.2027 10.6033Z" fill="url(#paint1_angular_2064_1596)"/>
<path d="M69.5928 5.87823C70.1181 6.38449 70.3033 7.08763 70.1966 7.84702C70.1254 8.35328 69.9446 8.83141 69.6502 9.30954L69.4568 9.67517L64.1581 18.4785C63.1501 20.1941 61.8081 20.4472 61.0696 20.4472C60.388 20.4472 59.8436 20.2785 59.4366 19.941C59.0825 19.6316 58.7805 19.1535 58.559 18.5066L55.6456 9.73143L55.5265 9.36579C55.3744 8.83141 55.332 8.32515 55.3992 7.84702C55.5059 7.08763 55.8887 6.38449 56.5563 5.87823C57.1711 5.34385 57.8883 5.09072 58.6551 5.09072C59.3936 5.09072 59.9623 5.2876 60.3898 5.68135C60.7116 6.01886 61.0058 6.55324 61.2683 7.31263L62.3654 11.0252L64.5021 7.34076C64.9536 6.55324 65.4019 5.99073 65.847 5.65323C66.3528 5.2876 66.9769 5.09072 67.6869 5.09072C68.4822 5.09072 69.1283 5.34385 69.5928 5.87823Z" fill="url(#paint2_angular_2064_1596)"/>
<path d="M76.2282 6.04698C76.6604 6.60949 76.8132 7.34076 76.6947 8.18452L75.4298 17.1847C75.2954 18.141 74.9614 18.9003 74.3956 19.491C73.769 20.1097 72.9547 20.4472 72.0742 20.4472C71.1938 20.4472 70.4988 20.1379 70.0422 19.5472C69.614 18.9566 69.4611 18.2253 69.5837 17.3534L70.8723 8.18452C70.9948 7.31263 71.3855 6.55324 71.9719 6.01886C72.5945 5.42822 73.3481 5.11884 74.2285 5.11884C75.0806 5.11884 75.7755 5.42822 76.2282 6.04698ZM74.2515 4.75321C72.9166 4.75321 72.0159 3.68444 72.2017 2.36254C72.3835 1.06877 73.5846 0 74.9195 0C76.2544 0 77.1835 1.06877 77.0016 2.36254C76.8159 3.68444 75.5864 4.75321 74.2515 4.75321Z" fill="url(#paint3_angular_2064_1596)"/>
<path d="M91.2821 10.2658C91.3292 10.9408 91.3077 11.7002 91.197 12.4877L90.5092 17.3816C90.3583 18.2535 89.9715 18.9847 89.3812 19.5472C88.787 20.1379 88.005 20.4472 87.1814 20.4472C86.3293 20.4472 85.606 20.1379 85.1493 19.5472C84.7211 18.9566 84.5683 18.2253 84.6908 17.3534L85.4379 12.0377C85.5288 11.3908 85.2031 11.0815 85.02 10.9689C84.841 10.8283 84.6785 10.7721 84.4513 10.7721C84.1105 10.7721 83.8674 10.8846 83.637 11.1096C83.3458 11.3627 83.2211 11.644 83.1657 12.0377L82.4147 17.3816C82.2638 18.2535 81.877 18.9847 81.2867 19.5472C80.6924 20.1379 79.9105 20.4472 79.0584 20.4472C78.2064 20.4472 77.5114 20.1379 77.0548 19.5472C76.6266 18.9566 76.4737 18.2253 76.5963 17.3534L77.2959 12.3752C77.4343 11.3908 77.6704 10.5189 78.0043 9.75955C78.3383 9.00016 78.8387 8.2689 79.4732 7.59389C80.241 6.77825 81.1272 6.13136 82.1561 5.68135C83.1566 5.23135 84.2107 5.00634 85.2332 5.00634C86.4545 5.00634 87.5755 5.31572 88.5678 5.93448C89.5641 6.52512 90.2975 7.36888 90.8045 8.40953C91.0458 8.91579 91.2144 9.53455 91.2821 10.2658Z" fill="url(#paint4_angular_2064_1596)"/>
<path d="M55.1318 29.1572C55.4274 30.0854 55.48 31.126 55.3298 32.1948C55.1796 33.2635 54.8384 34.2761 54.282 35.2042C53.7539 36.1324 53.0712 36.948 52.234 37.6511C51.4251 38.3543 50.5224 38.9168 49.5298 39.3105C48.5048 39.7324 47.4547 39.9293 46.3754 39.9293C45.2962 39.9293 44.3013 39.7324 43.391 39.3387C42.4807 38.9449 41.7361 38.3824 41.1249 37.6793C40.5097 37.0042 40.0563 36.1886 39.7567 35.2886C39.4612 34.3604 39.4046 33.3479 39.5548 32.2792C39.709 31.1823 40.0541 30.1416 40.5861 29.1854C41.1465 28.2291 41.8331 27.3853 42.642 26.6822C43.4225 25.979 44.3536 25.4165 45.3746 25.0228C46.3995 24.6009 47.4781 24.404 48.5858 24.404C49.665 24.404 50.6598 24.6009 51.5662 25.0228C52.4481 25.4165 53.1927 25.979 53.804 26.6822C54.4152 27.3853 54.8646 28.2291 55.1318 29.1572ZM45.5135 32.926C45.5916 33.1792 45.7059 33.3761 45.8526 33.5448C45.9993 33.7136 46.2068 33.8542 46.4466 33.9667C46.6619 34.0511 46.9096 34.1073 47.1936 34.1073C47.4493 34.1073 47.7128 34.0511 47.9519 33.9667C48.2233 33.8542 48.4742 33.6854 48.6968 33.5167C48.8909 33.3479 49.0606 33.151 49.2097 32.8979C49.3266 32.6729 49.4189 32.4198 49.4545 32.1667C49.498 31.8573 49.4768 31.6041 49.4232 31.3791C49.3452 31.126 49.2308 30.9291 49.0841 30.7604C48.9414 30.5635 48.7339 30.4229 48.4902 30.3385C48.2788 30.226 48.0311 30.1697 47.7754 30.1697C47.4914 30.1697 47.1995 30.226 46.9565 30.3385C46.685 30.451 46.4381 30.5916 46.2155 30.7604C46.0214 30.9291 45.8478 31.1541 45.727 31.4073C45.5818 31.6323 45.4854 31.9135 45.4419 32.2229C45.4064 32.476 45.4316 32.701 45.5135 32.926Z" fill="url(#paint5_angular_2064_1596)"/>
<path d="M76.4109 25.1353C76.9323 25.6697 77.1459 26.3728 77.0352 27.1603C76.9759 27.5822 76.8314 28.0041 76.6057 28.3978L72.0185 37.5949C71.6317 38.3261 71.2481 38.8324 70.7707 39.198C70.2365 39.5637 69.6124 39.7605 68.9023 39.7605C68.1639 39.7605 67.5951 39.5637 67.1921 39.198C66.8135 38.8605 66.5438 38.3543 66.3341 37.623L65.5894 34.8386L64.1227 37.5949C63.7036 38.3543 63.2916 38.8605 62.875 39.198C62.3692 39.5637 61.745 39.7605 61.0066 39.7605C59.7285 39.7605 58.8577 39.0855 58.5693 37.9043L58.5488 37.848L58.5071 37.5386L56.4252 28.7072L56.367 28.3135C56.2519 27.9197 56.2544 27.4978 56.3137 27.0759C56.4204 26.3165 56.8032 25.6134 57.4708 25.1072C58.0856 24.5728 58.8028 24.3196 59.5696 24.3196C60.8761 24.3196 61.7879 25.1072 62.0487 26.4853L62.1109 26.8509L62.5496 29.1854L63.8829 26.5697C64.2374 25.8665 64.6493 25.3603 65.1267 24.9947C65.6689 24.5728 66.3253 24.3478 67.0638 24.3478C67.8306 24.3478 69.1544 24.629 69.587 26.4009L70.2056 29.0728L71.1553 26.9634L71.3242 26.5697L71.3282 26.5416L71.3605 26.5134C72.2826 24.6009 73.7138 24.3196 74.509 24.3196C75.2759 24.3196 75.918 24.6009 76.4109 25.1353Z" fill="url(#paint6_angular_2064_1596)"/>
<path d="M90.9359 29.5791C90.9831 30.2541 90.9616 31.0135 90.8509 31.801L90.1631 36.6949C90.0122 37.5668 89.6254 38.298 89.0351 38.8605C88.4408 39.4512 87.6589 39.7605 86.8352 39.7605C85.9832 39.7605 85.2598 39.4512 84.8032 38.8605C84.375 38.2699 84.2221 37.5386 84.3447 36.6667L85.0917 31.351C85.1826 30.7041 84.8569 30.3947 84.6739 30.2822C84.4949 30.1416 84.3323 30.0854 84.1051 30.0854C83.7643 30.0854 83.5213 30.1979 83.2908 30.4229C82.9996 30.676 82.8749 30.9573 82.8196 31.351L82.0685 36.6949C81.9176 37.5668 81.5308 38.298 80.9405 38.8605C80.3463 39.4512 79.5644 39.7605 78.7123 39.7605C77.8602 39.7605 77.1653 39.4512 76.7087 38.8605C76.2804 38.2699 76.1276 37.5386 76.2501 36.6667L76.9498 31.6885C77.0881 30.7041 77.3242 29.8322 77.6582 29.0728C77.9921 28.3135 78.4925 27.5822 79.127 26.9072C79.8949 26.0915 80.7811 25.4447 81.81 24.9947C82.8105 24.5446 83.8646 24.3196 84.887 24.3196C86.1083 24.3196 87.2293 24.629 88.2216 25.2478C89.2179 25.8384 89.9514 26.6822 90.4584 27.7228C90.6996 28.2291 90.8683 28.8478 90.9359 29.5791Z" fill="url(#paint7_angular_2064_1596)"/>
<defs>
<radialGradient id="paint0_angular_2064_1596" cx="0" cy="0" r="1" gradientUnits="userSpaceOnUse" gradientTransform="translate(41.5747 23.3403) rotate(-104.178) scale(27.8295 59.3923)">
<stop stop-color="#B1B1B1"/>
<stop offset="1" stop-color="#616161"/>
</radialGradient>
<radialGradient id="paint1_angular_2064_1596" cx="0" cy="0" r="1" gradientUnits="userSpaceOnUse" gradientTransform="translate(41.5747 23.3403) rotate(-104.178) scale(27.8295 59.3923)">
<stop stop-color="#B1B1B1"/>
<stop offset="1" stop-color="#616161"/>
</radialGradient>
<radialGradient id="paint2_angular_2064_1596" cx="0" cy="0" r="1" gradientUnits="userSpaceOnUse" gradientTransform="translate(41.5747 23.3403) rotate(-104.178) scale(27.8295 59.3923)">
<stop stop-color="#B1B1B1"/>
<stop offset="1" stop-color="#616161"/>
</radialGradient>
<radialGradient id="paint3_angular_2064_1596" cx="0" cy="0" r="1" gradientUnits="userSpaceOnUse" gradientTransform="translate(41.5747 23.3403) rotate(-104.178) scale(27.8295 59.3923)">
<stop stop-color="#B1B1B1"/>
<stop offset="1" stop-color="#616161"/>
</radialGradient>
<radialGradient id="paint4_angular_2064_1596" cx="0" cy="0" r="1" gradientUnits="userSpaceOnUse" gradientTransform="translate(41.5747 23.3403) rotate(-104.178) scale(27.8295 59.3923)">
<stop stop-color="#B1B1B1"/>
<stop offset="1" stop-color="#616161"/>
</radialGradient>
<radialGradient id="paint5_angular_2064_1596" cx="0" cy="0" r="1" gradientUnits="userSpaceOnUse" gradientTransform="translate(41.5747 23.3403) rotate(-104.178) scale(27.8295 59.3923)">
<stop stop-color="#B1B1B1"/>
<stop offset="1" stop-color="#616161"/>
</radialGradient>
<radialGradient id="paint6_angular_2064_1596" cx="0" cy="0" r="1" gradientUnits="userSpaceOnUse" gradientTransform="translate(41.5747 23.3403) rotate(-104.178) scale(27.8295 59.3923)">
<stop stop-color="#B1B1B1"/>
<stop offset="1" stop-color="#616161"/>
</radialGradient>
<radialGradient id="paint7_angular_2064_1596" cx="0" cy="0" r="1" gradientUnits="userSpaceOnUse" gradientTransform="translate(41.5747 23.3403) rotate(-104.178) scale(27.8295 59.3923)">
<stop stop-color="#B1B1B1"/>
<stop offset="1" stop-color="#616161"/>
</radialGradient>
</defs>
</svg>
