<svg width="1200" height="675" viewBox="0 0 1200 675" fill="none" xmlns="http://www.w3.org/2000/svg">
<path fill-rule="evenodd" clip-rule="evenodd" d="M419.723 228.458C419.723 194.824 446.988 167.559 480.622 167.559H718.824C752.457 167.559 779.723 194.824 779.723 228.458V446.542C779.723 469.145 767.409 488.872 749.123 499.381C749.375 496.135 749.188 492.791 748.512 489.42L719.735 345.913C719.696 341.427 718.77 337.026 717.034 332.945C712.094 315.134 694.502 303.362 676.077 305.715C665.581 304.165 654.746 307.039 646.369 313.438C638.234 318.443 632.477 326.517 630.376 335.792L545.082 490.99C542.165 496.297 540.493 501.884 539.966 507.441H516.232L599.799 355.387C609.54 337.662 602.647 316.215 584.403 307.484L571.31 301.219C553.066 292.488 530.379 299.779 520.638 317.504L432.369 478.114C431.76 479.223 431.216 480.346 430.735 481.48C423.796 471.59 419.723 459.542 419.723 446.542V228.458ZM661.065 504.689C661.252 505.621 661.473 506.539 661.727 507.441H636.021L654.775 473.318L661.065 504.689ZM674.899 293.743C697.12 293.743 715.134 276.934 715.134 256.198C715.134 235.463 697.12 218.653 674.899 218.653C652.677 218.653 634.664 235.463 634.664 256.198C634.664 276.934 652.677 293.743 674.899 293.743Z" fill="#FF495C"/>
</svg>
