<svg width="1200" height="675" viewBox="0 0 1200 675" fill="none" xmlns="http://www.w3.org/2000/svg">
<rect width="153.144" height="56.5774" rx="12.8747" transform="matrix(0.893235 -0.44959 -0.44959 -0.893235 489.842 341.14)" fill="#CBD5E1"/>
<rect x="579.96" y="221.752" width="153.144" height="56.5774" rx="12.8747" transform="rotate(26.7174 579.96 221.752)" fill="#CBD5E1"/>
<rect x="563.116" y="281.06" width="153.144" height="56.5774" rx="12.8747" transform="rotate(-90 563.116 281.06)" fill="#CBD5E1"/>
<rect x="489.842" y="175.123" width="153.144" height="56.5774" rx="12.8747" transform="rotate(26.7174 489.842 175.123)" fill="#8A2BE2"/>
<rect width="102.391" height="56.5774" rx="8.58311" transform="matrix(0.893235 -0.44959 -0.44959 -0.893235 579.96 294.511)" fill="#8A2BE2"/>
<rect width="56.5627" height="56.5774" rx="8.58311" transform="matrix(0.893235 -0.44959 -0.44959 -0.893235 682.968 242.508)" fill="#0CAD4D"/>
<rect width="153.144" height="56.5774" rx="12.8747" transform="matrix(-4.37114e-08 1 1 4.37114e-08 563.116 226.623)" fill="#8A2BE2"/>
<g clip-path="url(#clip0_2054_1588)">
<path d="M385.676 551.755C378.105 551.755 372.821 545.677 373.875 538.179V538.179C374.929 530.681 381.921 524.604 389.492 524.604H423.967C425.806 524.604 427.373 524.229 428.668 523.479C430.071 522.729 431.18 521.765 431.994 520.587C432.932 519.302 433.499 517.963 433.694 516.571C433.905 515.071 433.715 513.732 433.123 512.554C432.655 511.269 431.824 510.252 430.632 509.502C429.548 508.752 428.086 508.377 426.247 508.377H411.646C404.616 508.377 398.423 507.038 393.067 504.361C387.711 501.683 383.656 497.827 380.903 492.794C378.272 487.652 377.461 481.494 378.47 474.318C379.463 467.249 381.951 461.091 385.933 455.842C389.916 450.594 394.868 446.524 400.791 443.633C406.713 440.741 413.027 439.295 419.733 439.295H457.777C465.348 439.295 470.632 445.373 469.578 452.87V452.87C468.524 460.368 461.532 466.446 453.961 466.446H420.622C419.108 466.446 417.71 466.767 416.43 467.41C415.259 468.052 414.273 468.909 413.473 469.98C412.782 471.051 412.346 472.229 412.165 473.515C411.985 474.8 412.09 475.978 412.48 477.049C412.978 478.12 413.716 479.031 414.692 479.78C415.791 480.423 417.098 480.744 418.612 480.744H434.349C442.028 480.744 448.531 482.19 453.857 485.082C459.198 487.867 463.083 491.776 465.512 496.81C467.941 501.844 468.674 507.788 467.71 514.643C466.611 522.461 463.994 529.155 459.859 534.725C455.831 540.294 450.856 544.525 444.934 547.417C439.011 550.309 432.697 551.755 425.992 551.755H385.676Z" fill="#94A3B8"/>
<path d="M512.725 584.368C503.093 584.368 496.371 576.636 497.711 567.097L497.982 565.169C499.323 555.631 508.218 547.899 517.85 547.899V547.899C527.482 547.899 534.204 555.631 532.863 565.169L532.592 567.097C531.252 576.636 522.357 584.368 512.725 584.368V584.368ZM516.933 553.843C507.956 553.843 499.886 552.397 492.721 549.505C485.665 546.613 479.747 542.544 474.969 537.295C470.314 531.94 466.968 525.728 464.934 518.659C462.899 511.59 462.468 503.879 463.642 495.525C464.816 487.171 467.414 479.459 471.436 472.39C475.473 465.214 480.564 459.002 486.71 453.754C492.963 448.506 500.025 444.436 507.894 441.544C515.871 438.652 524.349 437.206 533.326 437.206C542.303 437.206 550.319 438.652 557.376 441.544C564.54 444.436 570.458 448.506 575.128 453.754C579.907 459.002 583.306 465.214 585.326 472.39C587.36 479.459 587.791 487.171 586.617 495.525C585.443 503.879 582.845 511.59 578.823 518.659C574.801 525.728 569.656 531.94 563.387 537.295C557.242 542.544 550.18 546.613 542.203 549.505C534.334 552.397 525.91 553.843 516.933 553.843ZM520.862 525.889C524.864 525.889 528.593 525.139 532.048 523.64C535.519 522.033 538.585 519.837 541.248 517.053C543.91 514.268 546.093 511.055 547.794 507.413C549.511 503.665 550.662 499.702 551.249 495.525C551.837 491.348 551.791 487.438 551.113 483.797C550.45 480.048 549.179 476.781 547.299 473.997C545.419 471.212 542.962 469.07 539.928 467.57C536.909 465.964 533.399 465.161 529.397 465.161C525.395 465.161 521.659 465.964 518.188 467.57C514.733 469.07 511.674 471.212 509.011 473.997C506.349 476.781 504.159 480.048 502.442 483.797C500.741 487.438 499.597 491.348 499.01 495.525C498.423 499.702 498.46 503.665 499.123 507.413C499.801 511.055 501.08 514.268 502.96 517.053C504.84 519.837 507.29 522.033 510.308 523.64C513.342 525.139 516.86 525.889 520.862 525.889Z" fill="#94A3B8"/>
<path d="M618.245 553.682C609.809 553.682 602.331 551.862 595.813 548.22C589.403 544.579 584.547 539.491 581.248 532.958C578.071 526.317 577.085 518.713 578.289 510.144C579.493 501.576 582.609 494.025 587.637 487.492C592.774 480.958 599.113 475.871 606.655 472.229C614.212 468.481 622.209 466.606 630.645 466.606C639.081 466.606 646.497 468.481 652.892 472.229C659.302 475.871 664.103 480.958 667.295 487.492C670.487 494.025 671.481 501.576 670.276 510.144C669.072 518.713 665.948 526.317 660.905 532.958C655.877 539.491 649.592 544.579 642.05 548.22C634.616 551.862 626.681 553.682 618.245 553.682ZM622.128 526.049C625.049 526.049 627.742 525.353 630.209 523.961C632.676 522.569 634.67 520.694 636.191 518.338C637.835 515.875 638.875 513.09 639.312 509.984C639.748 506.878 639.483 504.147 638.517 501.79C637.658 499.434 636.191 497.56 634.115 496.167C632.04 494.775 629.542 494.079 626.622 494.079C623.701 494.079 621.008 494.775 618.541 496.167C616.074 497.56 614.026 499.434 612.397 501.79C610.768 504.147 609.735 506.878 609.298 509.984C608.862 513.09 609.119 515.875 610.071 518.338C611.038 520.694 612.559 522.569 614.635 523.961C616.71 525.353 619.208 526.049 622.128 526.049Z" fill="#94A3B8"/>
<path d="M704.825 553.682C696.389 553.682 688.911 551.862 682.393 548.22C675.982 544.579 671.127 539.491 667.827 532.958C664.651 526.317 663.665 518.713 664.869 510.144C666.073 501.576 669.189 494.025 674.217 487.492C679.354 480.958 685.693 475.871 693.235 472.229C700.792 468.481 708.788 466.606 717.225 466.606C725.661 466.606 733.077 468.481 739.472 472.229C745.882 475.871 750.683 480.958 753.875 487.492C757.067 494.025 758.06 501.576 756.856 510.144C755.652 518.713 752.528 526.317 747.485 532.958C742.457 539.491 736.172 544.579 728.63 548.22C721.196 551.862 713.261 553.682 704.825 553.682ZM708.708 526.049C711.629 526.049 714.322 525.353 716.789 523.961C719.256 522.569 721.25 520.694 722.771 518.338C724.415 515.875 725.455 513.09 725.892 509.984C726.328 506.878 726.063 504.147 725.097 501.79C724.238 499.434 722.771 497.56 720.695 496.167C718.62 494.775 716.122 494.079 713.202 494.079C710.281 494.079 707.588 494.775 705.121 496.167C702.654 497.56 700.606 499.434 698.977 501.79C697.348 504.147 696.315 506.878 695.878 509.984C695.442 513.09 695.699 515.875 696.651 518.338C697.618 520.694 699.139 522.569 701.215 523.961C703.29 525.353 705.788 526.049 708.708 526.049Z" fill="#94A3B8"/>
<path d="M785.348 551.755C777.669 551.755 771.189 550.148 765.909 546.935C760.628 543.722 756.788 539.491 754.389 534.243C752.005 528.888 751.265 522.997 752.168 516.571L760.59 456.646C761.936 447.063 770.873 439.295 780.55 439.295V439.295C790.227 439.295 796.979 447.063 795.633 456.646L787.166 516.892C786.88 518.927 787.327 520.748 788.507 522.354C789.81 523.854 791.544 524.604 793.707 524.604H810.012C817.583 524.604 822.866 530.681 821.813 538.179V538.179C820.759 545.677 813.767 551.755 806.196 551.755H785.348Z" fill="#94A3B8"/>
</g>
<defs>
<clipPath id="clip0_2054_1588">
<rect width="473" height="150.647" fill="white" transform="translate(363 437.207)"/>
</clipPath>
</defs>
</svg>
